<svg id="svg" version="1.1" xmlns="http://www.w3.org/2000/svg" xmlns:xlink="http://www.w3.org/1999/xlink" width="400" height="294.1704035874439" viewBox="0, 0, 400,294.1704035874439"><g id="svgg"><path id="path0" d="M194.349 36.056 C 194.002 36.299,193.625 36.928,193.511 37.454 C 193.397 37.980,192.724 39.521,192.016 40.878 C 191.308 42.235,190.728 43.529,190.728 43.753 C 190.728 43.978,190.418 44.656,190.039 45.260 C 189.660 45.864,188.664 47.763,187.825 49.480 C 186.986 51.197,186.206 52.695,186.091 52.810 C 185.726 53.175,183.454 57.436,181.841 60.780 C 179.740 65.136,178.860 66.849,176.322 71.523 C 173.560 76.608,171.291 81.024,170.574 82.708 C 170.264 83.436,169.787 84.364,169.515 84.768 C 169.243 85.173,167.926 87.623,166.588 90.213 C 165.250 92.804,163.721 95.651,163.190 96.542 C 162.660 97.432,160.871 100.876,159.215 104.194 C 157.559 107.513,155.538 111.420,154.723 112.877 C 153.074 115.827,147.156 127.498,145.917 130.243 C 144.979 132.322,140.571 140.839,139.435 142.768 C 139.001 143.505,138.264 145.028,137.798 146.153 C 136.942 148.218,135.294 151.777,133.444 155.556 C 131.724 159.069,131.762 159.453,133.969 160.901 C 139.546 164.559,140.451 164.668,141.524 161.808 C 141.842 160.959,142.580 159.315,143.163 158.155 C 143.746 156.994,144.224 155.960,144.224 155.856 C 144.224 155.752,144.672 154.714,145.220 153.551 C 146.478 150.881,147.046 149.557,147.308 148.693 C 147.472 148.150,150.773 141.277,151.870 139.195 C 152.005 138.938,152.816 137.414,153.672 135.810 C 155.637 132.125,160.706 121.928,160.706 121.660 C 160.706 121.550,160.899 121.246,161.135 120.985 C 161.707 120.354,163.137 117.790,164.398 115.134 C 164.962 113.946,165.727 112.556,166.098 112.043 C 166.868 110.978,169.236 106.235,170.089 104.047 C 171.014 101.673,174.664 95.015,178.074 89.478 C 178.223 89.235,179.016 87.579,179.836 85.798 C 180.655 84.018,181.673 81.898,182.096 81.089 C 182.520 80.280,183.424 78.558,184.104 77.263 C 184.785 75.968,186.035 73.584,186.883 71.965 C 187.731 70.346,188.801 68.425,189.261 67.697 C 189.721 66.968,190.379 65.655,190.723 64.778 C 191.066 63.900,191.582 62.841,191.869 62.423 C 192.156 62.005,192.880 60.617,193.479 59.339 C 194.792 56.533,197.107 52.980,197.622 52.980 C 198.355 52.980,200.335 56.354,201.940 60.338 C 202.168 60.905,203.381 63.419,204.635 65.926 C 205.890 68.432,207.060 70.919,207.237 71.453 C 207.413 71.987,208.025 73.115,208.598 73.960 C 209.170 74.805,210.491 77.219,211.532 79.323 C 212.573 81.428,213.553 83.383,213.708 83.668 C 214.298 84.752,217.477 91.173,218.259 92.862 C 218.709 93.834,219.434 95.158,219.870 95.806 C 220.924 97.373,223.025 101.125,223.257 101.853 C 223.553 102.785,226.349 108.380,226.925 109.192 C 227.562 110.090,229.057 112.830,230.219 115.232 C 230.690 116.203,231.283 117.395,231.538 117.881 C 231.793 118.366,232.613 119.956,233.361 121.413 C 234.108 122.870,235.153 124.782,235.682 125.663 C 236.211 126.544,236.645 127.463,236.645 127.705 C 236.645 128.239,238.582 132.074,239.266 132.892 C 239.537 133.216,240.301 134.606,240.965 135.982 C 241.628 137.358,243.317 140.868,244.718 143.782 C 246.118 146.696,247.912 150.413,248.705 152.042 C 249.497 153.671,250.235 155.362,250.345 155.799 C 250.554 156.634,251.849 157.860,252.256 157.609 C 252.386 157.528,253.199 157.328,254.061 157.165 C 256.255 156.749,260.486 154.590,260.486 153.885 C 260.486 153.206,259.550 151.173,257.999 148.483 C 257.343 147.345,256.210 145.174,255.482 143.659 C 254.753 142.143,253.199 139.035,252.027 136.750 C 250.855 134.466,248.098 129.021,245.900 124.650 C 243.702 120.280,241.532 116.107,241.079 115.379 C 240.625 114.650,240.071 113.597,239.847 113.038 C 239.624 112.480,239.095 111.354,238.671 110.537 C 236.754 106.833,236.010 105.352,234.894 103.017 C 234.237 101.641,233.293 99.787,232.798 98.896 C 232.302 98.006,231.491 96.549,230.996 95.659 C 229.372 92.742,228.700 91.396,228.699 91.059 C 228.698 90.876,228.521 90.580,228.304 90.401 C 228.088 90.221,226.410 87.059,224.576 83.374 C 222.741 79.689,220.683 75.747,220.003 74.614 C 218.812 72.631,215.052 65.275,213.985 62.840 C 211.954 58.208,211.188 56.750,206.565 48.712 C 205.913 47.579,204.991 45.592,204.516 44.297 C 204.042 43.002,203.471 41.545,203.249 41.060 C 203.027 40.574,202.758 39.647,202.651 38.999 C 202.342 37.121,201.874 36.174,201.112 35.884 C 199.912 35.428,195.071 35.551,194.349 36.056 M268.795 140.344 C 267.648 141.088,266.167 150.150,267.132 150.520 C 268.102 150.893,371.605 150.720,371.979 150.346 C 372.486 149.839,372.473 141.464,371.965 141.060 C 371.386 140.601,269.490 139.893,268.795 140.344 M27.013 141.207 C 26.003 142.361,25.284 145.253,25.374 147.810 L 25.460 150.258 76.755 150.332 L 128.049 150.406 128.337 149.651 C 128.839 148.330,128.702 141.695,128.161 141.154 C 127.408 140.400,27.674 140.452,27.013 141.207 M132.415 199.394 C 132.314 199.497,130.014 199.646,127.304 199.727 C 123.403 199.842,122.183 199.978,121.452 200.378 C 120.595 200.847,117.244 200.893,74.025 201.030 C 28.646 201.174,27.493 201.191,26.407 201.751 C 24.645 202.660,24.534 205.328,26.137 208.200 C 27.700 211.000,22.709 210.742,75.438 210.743 C 116.556 210.743,121.983 210.795,122.755 211.194 C 123.394 211.525,123.776 211.564,124.192 211.341 C 124.893 210.966,131.562 210.938,132.530 211.306 C 133.578 211.704,135.783 211.140,136.608 210.263 C 138.049 208.731,137.723 201.644,136.144 200.161 C 135.432 199.492,132.841 198.959,132.415 199.394 M277.683 201.118 C 277.325 201.319,277.337 201.493,277.767 202.296 C 278.305 203.301,278.502 207.790,278.075 209.311 C 277.887 209.980,277.973 210.134,278.704 210.436 C 280.038 210.989,371.468 210.750,372.140 210.192 C 372.769 209.671,372.873 201.894,372.259 201.387 C 371.815 201.021,278.333 200.755,277.683 201.118 " stroke="none" fill="#ee4d5b" fill-rule="evenodd"></path><path id="path1" d="M194.257 132.937 C 193.495 133.032,193.061 133.314,192.607 134.009 C 192.268 134.528,190.830 136.740,189.410 138.926 C 187.991 141.111,186.584 143.230,186.284 143.635 C 184.731 145.728,183.046 148.404,182.208 150.110 C 181.690 151.163,181.091 152.222,180.876 152.465 C 180.175 153.255,176.895 158.338,176.895 158.633 C 176.895 158.791,176.497 159.372,176.012 159.926 C 175.526 160.479,175.129 161.069,175.129 161.238 C 175.129 161.406,174.654 162.166,174.075 162.925 C 173.000 164.333,170.714 167.945,170.714 168.235 C 170.714 168.654,168.295 173.429,167.222 175.129 C 166.557 176.181,165.627 177.791,165.155 178.706 C 164.683 179.621,163.966 180.945,163.561 181.649 C 156.995 193.064,158.566 212.732,166.704 221.011 C 167.438 221.758,168.632 223.223,169.357 224.266 C 172.599 228.932,182.367 234.817,188.521 235.811 C 189.654 235.994,190.767 236.289,190.994 236.468 C 191.587 236.934,200.487 237.079,202.502 236.655 C 203.392 236.468,204.849 236.175,205.740 236.003 C 206.630 235.831,207.776 235.508,208.286 235.285 C 208.796 235.061,209.392 234.879,209.610 234.878 C 210.683 234.878,213.387 233.588,219.485 230.166 C 221.120 229.249,223.838 226.803,224.610 225.554 C 224.928 225.039,225.635 224.112,226.181 223.493 C 229.286 219.976,230.517 218.219,232.041 215.132 C 232.965 213.262,233.837 211.079,233.981 210.281 C 234.124 209.483,234.444 208.102,234.691 207.211 C 235.261 205.158,235.856 198.683,235.621 197.090 C 235.523 196.424,235.306 194.952,235.140 193.819 C 234.634 190.372,233.452 186.371,232.096 183.517 C 231.557 182.384,230.683 180.530,230.154 179.397 C 229.624 178.263,228.592 176.475,227.860 175.423 C 227.129 174.371,225.783 172.051,224.870 170.268 C 223.249 167.102,222.514 165.907,219.650 161.776 C 218.879 160.665,218.043 159.340,217.792 158.833 C 216.792 156.812,215.597 154.899,214.503 153.566 C 213.871 152.796,212.950 151.273,212.456 150.182 C 211.556 148.190,208.653 143.539,208.094 143.194 C 207.930 143.092,207.049 141.858,206.138 140.452 C 205.226 139.046,204.035 137.232,203.491 136.421 C 202.947 135.610,202.502 134.806,202.502 134.633 C 202.502 133.225,198.516 132.405,194.257 132.937 M198.895 146.025 C 199.503 147.016,200.530 148.632,201.177 149.616 C 201.825 150.601,202.884 152.354,203.532 153.514 C 204.180 154.673,205.054 156.070,205.476 156.619 C 205.898 157.167,206.529 158.178,206.879 158.864 C 207.229 159.551,208.287 161.272,209.231 162.690 C 210.175 164.108,211.386 166.063,211.922 167.035 C 212.996 168.980,213.002 168.991,214.143 171.302 C 214.582 172.193,215.255 173.296,215.639 173.753 C 216.022 174.211,216.338 174.741,216.340 174.931 C 216.343 175.121,216.754 175.740,217.255 176.306 C 218.607 177.838,220.741 181.194,221.933 183.664 C 223.902 187.744,224.305 188.723,224.865 190.781 C 226.117 195.388,226.205 204.641,225.019 206.995 C 224.755 207.519,224.296 208.632,224.000 209.468 C 223.704 210.305,223.050 211.587,222.547 212.317 C 222.045 213.048,221.634 213.792,221.634 213.971 C 221.634 214.436,220.706 215.826,220.092 216.280 C 219.805 216.492,219.372 217.049,219.130 217.517 C 218.888 217.985,218.060 218.797,217.292 219.321 C 216.523 219.846,215.848 220.387,215.792 220.524 C 215.645 220.884,211.886 223.694,211.551 223.694 C 211.397 223.694,210.686 224.088,209.972 224.570 C 205.682 227.465,192.355 228.842,189.728 226.661 C 189.550 226.514,188.543 226.095,187.491 225.731 C 180.676 223.373,171.848 214.353,170.055 207.916 C 168.880 203.697,168.654 202.479,168.663 200.422 C 168.674 197.664,169.352 192.567,170.092 189.679 C 170.620 187.617,173.935 180.931,175.139 179.501 C 176.975 177.319,179.949 172.769,180.689 171.008 C 181.752 168.482,183.643 165.137,185.056 163.284 C 185.765 162.354,186.621 160.963,186.959 160.193 C 187.296 159.423,188.023 158.290,188.575 157.674 C 189.126 157.059,189.708 156.212,189.867 155.794 C 190.026 155.375,190.859 153.958,191.717 152.645 C 192.576 151.332,193.649 149.517,194.101 148.612 C 196.422 143.974,197.335 143.481,198.895 146.025 M258.867 155.248 C 257.487 156.092,254.908 157.059,253.365 157.311 C 251.498 157.617,251.846 159.516,254.929 165.825 C 255.395 166.779,255.776 167.752,255.776 167.987 C 255.776 168.223,255.976 168.767,256.221 169.197 C 256.847 170.297,258.099 173.782,258.597 175.815 C 258.829 176.759,259.267 178.150,259.571 178.906 C 259.875 179.661,260.335 181.074,260.593 182.046 C 263.968 194.752,263.781 199.558,259.914 199.558 C 257.531 199.558,257.502 199.626,257.445 205.212 C 257.391 210.487,257.735 211.626,259.379 211.626 C 260.982 211.626,261.388 212.531,260.664 214.490 C 260.439 215.100,259.761 217.189,259.157 219.132 C 257.525 224.386,257.378 224.816,256.362 227.344 C 255.339 229.888,254.168 232.156,252.910 234.031 C 252.463 234.697,251.832 235.667,251.508 236.188 C 251.185 236.708,250.556 237.564,250.110 238.089 C 249.665 238.615,249.301 239.211,249.301 239.415 C 249.301 239.618,248.937 240.125,248.492 240.540 C 248.046 240.955,247.152 242.065,246.505 243.006 C 244.266 246.260,239.571 250.890,237.346 252.039 C 236.397 252.530,236.207 252.677,233.260 255.204 C 232.288 256.037,230.699 257.117,229.728 257.605 C 228.756 258.092,227.763 258.660,227.520 258.865 C 227.277 259.071,226.748 259.339,226.343 259.461 C 225.938 259.583,225.011 260.091,224.283 260.590 C 223.555 261.089,222.098 261.809,221.045 262.189 C 217.444 263.490,218.044 263.324,211.339 264.875 C 209.805 265.230,207.288 265.635,205.747 265.775 C 204.205 265.915,202.281 266.183,201.472 266.371 C 199.836 266.750,191.774 266.532,190.574 266.075 C 190.190 265.929,188.114 265.590,185.961 265.322 C 183.807 265.054,181.648 264.656,181.163 264.437 C 180.306 264.050,178.906 263.665,176.432 263.135 C 175.323 262.897,173.221 261.883,170.719 260.380 C 170.156 260.042,168.615 259.232,167.297 258.580 C 165.978 257.928,164.187 256.886,163.318 256.264 C 162.448 255.642,161.112 254.715,160.349 254.204 C 156.125 251.374,149.520 245.166,147.137 241.787 C 144.624 238.223,143.341 236.328,143.341 236.183 C 143.341 236.096,142.718 235.071,141.958 233.906 C 138.948 229.296,135.931 221.817,133.762 213.586 C 133.106 211.097,132.980 211.038,128.335 211.038 C 122.890 211.038,122.940 210.882,125.685 219.279 C 126.029 220.331,126.623 222.318,127.005 223.694 C 128.120 227.706,130.619 233.349,133.457 238.263 C 134.018 239.235,134.803 240.625,135.201 241.354 C 135.599 242.082,136.268 243.000,136.689 243.392 C 137.110 243.784,137.454 244.216,137.454 244.351 C 137.454 247.011,152.637 261.180,159.485 264.911 C 160.238 265.321,161.509 266.082,162.309 266.603 C 163.110 267.124,163.857 267.550,163.970 267.550 C 164.082 267.550,165.382 268.263,166.858 269.135 C 168.334 270.008,170.236 270.946,171.084 271.222 C 171.933 271.497,173.024 271.902,173.510 272.123 C 175.001 272.800,183.928 274.760,189.257 275.579 C 193.447 276.224,208.201 275.810,209.713 275.006 C 210.037 274.833,211.030 274.604,211.921 274.495 C 216.743 273.907,220.612 272.878,223.683 271.368 C 224.903 270.768,226.223 270.177,226.617 270.054 C 227.010 269.931,227.858 269.450,228.501 268.985 C 229.143 268.519,229.793 268.138,229.946 268.138 C 230.098 268.138,231.523 267.344,233.113 266.372 C 234.702 265.401,236.084 264.606,236.184 264.606 C 236.283 264.606,237.038 264.143,237.862 263.576 C 238.686 263.010,239.478 262.546,239.624 262.546 C 241.454 262.546,254.634 248.928,257.649 243.922 C 258.481 242.540,259.923 240.267,260.854 238.870 C 261.784 237.473,262.546 236.259,262.546 236.172 C 262.546 236.086,262.943 235.437,263.429 234.731 C 263.915 234.026,264.312 233.347,264.312 233.223 C 264.312 233.099,264.651 232.507,265.066 231.909 C 265.481 231.310,266.023 230.111,266.271 229.244 C 266.519 228.377,266.921 227.005,267.165 226.196 C 267.409 225.386,267.719 224.103,267.853 223.343 C 267.987 222.584,268.294 221.259,268.533 220.400 C 268.773 219.540,269.191 217.910,269.463 216.777 C 270.080 214.200,270.172 214.094,272.208 213.643 C 273.493 213.359,274.183 212.984,275.202 212.018 C 275.931 211.327,276.923 210.440,277.406 210.045 C 279.441 208.387,278.326 201.087,275.917 200.294 C 273.610 199.535,273.062 198.584,272.696 194.702 C 272.503 192.663,271.950 189.669,270.766 184.253 C 270.430 182.715,270.040 180.915,269.900 180.253 C 269.760 179.591,269.420 178.531,269.145 177.898 C 268.870 177.265,268.538 176.483,268.407 176.159 C 268.018 175.201,267.255 171.898,267.255 171.175 C 267.255 170.807,266.908 169.592,266.484 168.476 C 266.060 167.359,265.387 165.453,264.988 164.238 C 264.590 163.024,264.130 161.782,263.966 161.477 C 263.803 161.172,263.210 159.653,262.648 158.100 C 261.202 154.106,260.993 153.948,258.867 155.248 M131.875 160.780 C 131.459 161.432,130.918 162.517,129.415 165.710 C 128.460 167.739,127.455 170.914,127.450 171.918 C 127.448 172.337,127.182 173.694,126.858 174.935 C 126.534 176.175,126.010 178.180,125.694 179.392 C 125.377 180.604,124.914 182.196,124.665 182.931 C 123.683 185.822,122.389 193.901,122.331 197.498 L 122.296 199.706 126.794 199.671 C 129.269 199.652,131.372 199.558,131.468 199.461 C 131.565 199.365,131.620 197.121,131.590 194.476 C 131.537 189.726,131.549 189.626,132.544 186.591 C 133.098 184.901,133.910 182.391,134.347 181.015 C 134.785 179.639,135.392 177.984,135.695 177.336 C 135.999 176.689,136.599 174.967,137.029 173.510 C 137.459 172.053,138.269 169.567,138.830 167.985 C 140.097 164.413,140.082 164.348,137.748 163.134 C 136.696 162.586,135.163 161.684,134.342 161.128 C 132.579 159.935,132.428 159.914,131.875 160.780 " stroke="none" fill="#22f3ce" fill-rule="evenodd"></path><path id="path2" d="M0.000 147.167 L 0.000 294.334 200.000 294.334 L 400.000 294.334 400.000 147.167 L 400.000 0.000 200.000 0.000 L 0.000 0.000 0.000 147.167 M201.118 35.886 C 201.924 36.193,202.112 36.556,202.650 38.852 C 203.238 41.357,205.252 46.431,206.565 48.712 C 210.508 55.568,211.478 57.351,212.648 59.897 C 213.094 60.868,213.709 62.153,214.015 62.751 C 214.320 63.350,214.570 64.014,214.570 64.228 C 214.570 64.441,215.066 65.474,215.673 66.524 C 216.280 67.574,217.103 69.161,217.502 70.052 C 217.901 70.942,218.689 72.399,219.252 73.289 C 219.815 74.180,221.982 78.286,224.067 82.414 C 226.152 86.542,228.031 90.118,228.243 90.361 C 228.455 90.603,228.727 91.126,228.848 91.522 C 228.969 91.918,229.313 92.646,229.612 93.141 C 229.911 93.635,230.544 94.768,231.019 95.659 C 231.493 96.549,232.289 98.006,232.788 98.896 C 233.286 99.787,234.241 101.641,234.911 103.017 C 236.187 105.641,237.200 107.665,238.601 110.389 C 239.063 111.287,239.624 112.480,239.847 113.038 C 240.071 113.597,240.625 114.650,241.078 115.379 C 241.532 116.107,243.703 120.280,245.903 124.650 C 248.102 129.021,250.860 134.466,252.030 136.750 C 253.200 139.035,254.753 142.147,255.482 143.667 C 256.210 145.187,257.292 147.243,257.885 148.236 C 258.479 149.228,259.298 150.769,259.706 151.660 C 260.113 152.551,260.842 153.562,261.326 153.907 C 261.856 154.284,262.405 155.087,262.706 155.927 C 262.981 156.694,263.389 157.739,263.612 158.249 C 263.835 158.759,264.018 159.280,264.018 159.407 C 264.018 159.534,264.277 160.176,264.594 160.834 C 264.911 161.492,265.359 162.759,265.591 163.650 C 265.823 164.540,266.338 165.997,266.735 166.887 C 267.132 167.778,267.687 169.632,267.967 171.008 C 268.593 174.078,269.248 176.373,269.940 177.925 C 270.536 179.262,271.965 185.108,271.965 186.212 C 271.965 186.613,272.102 187.198,272.271 187.513 C 272.439 187.827,272.696 188.911,272.842 189.922 C 274.147 198.958,274.096 198.777,275.415 199.106 C 275.865 199.218,276.696 199.664,277.263 200.096 L 278.293 200.883 325.092 200.983 C 356.653 201.051,372.011 201.183,372.259 201.387 C 372.873 201.894,372.769 209.671,372.140 210.192 C 371.733 210.530,364.072 210.608,325.268 210.669 C 275.192 210.748,277.203 210.677,275.882 212.409 C 275.056 213.493,273.036 214.570,271.829 214.570 C 270.866 214.570,270.511 215.141,270.154 217.264 C 269.982 218.291,269.737 219.397,269.611 219.720 C 269.484 220.044,269.150 221.369,268.868 222.664 C 268.185 225.804,267.245 229.073,266.925 229.419 C 266.783 229.572,266.667 229.946,266.667 230.249 C 266.667 230.552,266.302 231.417,265.857 232.171 C 265.412 232.925,264.915 233.772,264.753 234.053 C 262.996 237.107,260.116 241.648,259.937 241.648 C 259.813 241.648,259.256 242.538,258.700 243.625 C 257.343 246.280,254.445 250.058,251.762 252.670 C 251.254 253.164,249.069 255.292,246.906 257.397 C 242.663 261.527,241.271 262.702,239.441 263.695 C 238.793 264.047,237.469 264.788,236.497 265.342 C 235.526 265.896,234.533 266.447,234.290 266.567 C 234.047 266.688,233.298 267.157,232.626 267.611 C 231.954 268.065,230.894 268.670,230.271 268.957 C 229.649 269.243,228.609 269.819,227.962 270.237 C 227.314 270.654,226.453 271.101,226.049 271.229 C 225.644 271.357,224.228 271.973,222.901 272.597 C 220.525 273.715,217.885 274.437,214.422 274.915 C 213.451 275.049,211.531 275.358,210.155 275.600 C 205.209 276.473,200.532 276.975,197.384 276.972 C 193.834 276.968,187.491 276.387,187.491 276.066 C 187.491 275.953,186.498 275.767,185.285 275.654 C 184.072 275.540,183.005 275.326,182.913 275.177 C 182.822 275.029,182.258 274.905,181.660 274.901 C 181.063 274.897,180.044 274.756,179.397 274.588 C 178.749 274.419,177.491 274.104,176.600 273.886 C 172.684 272.929,166.507 270.301,164.827 268.877 C 164.584 268.671,164.091 268.413,163.731 268.303 C 163.371 268.193,162.444 267.672,161.671 267.144 C 160.898 266.617,160.018 266.093,159.717 265.981 C 159.037 265.728,155.127 263.202,152.769 261.493 C 150.723 260.009,149.351 258.853,148.263 257.695 C 147.651 257.045,147.055 256.423,146.938 256.314 C 142.137 251.841,138.816 248.112,137.023 245.180 C 136.577 244.452,136.048 243.723,135.847 243.561 C 135.391 243.194,130.684 235.316,130.684 234.920 C 130.684 234.761,130.233 233.727,129.681 232.621 C 128.038 229.331,127.260 227.475,126.742 225.607 C 126.306 224.039,125.751 222.235,124.840 219.426 C 124.218 217.508,123.590 215.210,123.152 213.248 C 122.899 212.117,122.537 211.093,122.347 210.972 C 122.157 210.851,101.074 210.750,75.497 210.747 C 22.702 210.742,27.700 210.999,26.137 208.200 C 24.534 205.328,24.645 202.660,26.407 201.751 C 27.493 201.191,28.647 201.174,74.084 201.030 C 109.109 200.919,120.733 200.798,120.992 200.538 C 121.182 200.349,121.381 199.223,121.435 198.036 C 121.680 192.622,123.130 183.934,124.085 182.147 C 124.315 181.718,124.503 181.055,124.502 180.676 C 124.501 180.296,124.711 179.323,124.969 178.514 C 125.903 175.584,126.066 174.961,126.733 171.759 C 127.485 168.153,128.263 165.710,128.659 165.710 C 128.802 165.710,128.918 165.504,128.918 165.252 C 128.918 164.855,129.577 163.300,130.346 161.884 C 130.477 161.641,130.819 160.979,131.104 160.412 C 131.389 159.845,131.794 159.051,132.004 158.646 C 132.214 158.241,132.842 156.917,133.401 155.703 C 133.960 154.489,135.081 152.104,135.893 150.405 C 136.705 148.705,137.553 146.784,137.779 146.137 C 138.004 145.489,138.648 144.165,139.210 143.194 C 140.552 140.873,144.892 132.488,145.912 130.243 C 147.223 127.356,153.116 115.755,154.883 112.583 C 155.784 110.964,157.592 107.454,158.900 104.783 C 160.208 102.112,161.921 98.801,162.707 97.425 C 163.493 96.049,165.235 92.804,166.578 90.213 C 167.921 87.623,169.243 85.173,169.515 84.768 C 169.787 84.364,170.248 83.436,170.539 82.708 C 170.830 81.979,171.217 81.118,171.399 80.795 C 171.581 80.471,172.341 79.014,173.088 77.557 C 173.835 76.100,175.351 73.252,176.457 71.229 C 178.857 66.837,179.608 65.381,181.770 60.927 C 183.492 57.381,185.737 53.165,186.091 52.810 C 186.206 52.695,186.986 51.197,187.825 49.480 C 188.664 47.763,189.660 45.864,190.039 45.260 C 190.418 44.656,190.728 43.978,190.728 43.753 C 190.728 43.529,191.314 42.225,192.030 40.858 C 192.745 39.490,193.424 37.872,193.538 37.264 C 193.676 36.532,193.958 36.071,194.371 35.904 C 195.219 35.562,200.229 35.548,201.118 35.886 M195.946 54.952 C 194.542 57.077,192.789 60.401,192.789 60.938 C 192.789 61.116,192.469 61.682,192.077 62.198 C 191.686 62.713,191.095 63.851,190.763 64.727 C 190.432 65.603,189.723 66.994,189.189 67.818 C 188.655 68.642,187.828 70.177,187.351 71.229 C 186.874 72.281,186.306 73.359,186.088 73.625 C 185.871 73.890,185.057 75.347,184.280 76.862 C 183.503 78.378,182.590 80.147,182.250 80.795 C 181.910 81.442,180.891 83.561,179.986 85.504 C 179.082 87.447,178.219 89.235,178.070 89.478 C 177.728 90.035,175.584 93.677,174.296 95.889 C 172.847 98.377,170.917 102.097,170.293 103.606 C 169.225 106.182,166.771 111.124,166.102 112.043 C 165.729 112.556,164.962 113.946,164.398 115.134 C 163.230 117.592,161.742 120.297,161.191 120.962 C 160.985 121.210,160.563 122.009,160.254 122.737 C 159.650 124.157,155.794 131.800,153.512 136.099 C 152.748 137.539,152.010 138.930,151.873 139.189 C 150.792 141.236,147.472 148.148,147.308 148.693 C 147.046 149.557,146.478 150.881,145.220 153.551 C 144.672 154.714,144.224 155.753,144.224 155.859 C 144.224 155.965,143.716 157.066,143.095 158.306 C 141.935 160.623,141.356 162.196,140.533 165.269 C 140.273 166.240,139.891 167.432,139.686 167.918 C 138.978 169.587,138.568 170.863,138.360 172.038 C 138.245 172.686,137.994 173.505,137.803 173.859 C 137.611 174.212,137.454 174.731,137.454 175.013 C 137.454 175.294,137.073 176.329,136.608 177.313 C 136.143 178.297,135.457 180.096,135.084 181.310 C 134.710 182.524,134.312 183.716,134.198 183.959 C 134.084 184.202,133.838 184.996,133.650 185.725 C 133.462 186.453,133.117 187.712,132.883 188.521 C 132.398 190.197,132.283 197.313,132.721 198.467 C 132.931 199.018,133.272 199.218,134.222 199.345 C 138.416 199.908,139.023 210.441,134.905 211.213 C 133.936 211.395,133.668 211.830,134.188 212.377 C 134.435 212.637,135.282 215.538,135.602 217.219 C 135.679 217.623,135.928 218.372,136.156 218.882 C 136.384 219.392,136.571 220.080,136.571 220.410 C 136.571 220.740,136.671 221.072,136.793 221.147 C 136.915 221.223,137.329 222.257,137.713 223.446 C 138.609 226.217,140.653 230.428,142.354 233.006 C 143.087 234.117,143.956 235.547,144.284 236.185 C 144.612 236.822,145.065 237.528,145.290 237.753 C 145.515 237.978,145.836 238.417,146.003 238.729 C 146.409 239.488,149.127 243.190,149.551 243.561 C 149.736 243.723,150.301 244.299,150.808 244.841 C 154.210 248.478,158.184 251.902,161.278 253.863 C 162.044 254.349,163.169 255.127,163.777 255.592 C 164.386 256.057,165.699 256.866,166.695 257.389 C 167.691 257.912,169.301 258.775,170.272 259.307 C 174.788 261.782,175.068 261.898,179.544 263.136 C 180.758 263.472,182.016 263.875,182.340 264.031 C 182.664 264.187,184.319 264.433,186.019 264.579 C 187.719 264.724,189.685 264.991,190.387 265.173 C 192.138 265.627,200.560 265.656,203.974 265.219 C 205.511 265.023,207.697 264.757,208.830 264.629 C 209.963 264.501,211.221 264.259,211.626 264.092 C 212.031 263.925,213.687 263.483,215.305 263.110 C 216.924 262.738,218.580 262.260,218.985 262.050 C 219.389 261.839,219.949 261.666,220.229 261.665 C 220.508 261.664,221.502 261.243,222.436 260.729 C 223.371 260.215,224.864 259.403,225.754 258.923 C 226.645 258.444,227.828 257.806,228.385 257.506 C 228.942 257.206,229.531 256.827,229.695 256.663 C 229.859 256.499,230.169 256.365,230.385 256.365 C 230.601 256.365,231.138 256.000,231.577 255.553 C 232.710 254.402,237.077 251.067,237.450 251.067 C 238.029 251.067,244.592 244.847,244.592 244.298 C 244.592 244.090,247.226 240.737,247.990 239.974 C 248.233 239.731,248.642 239.126,248.898 238.630 C 249.155 238.133,249.682 237.385,250.069 236.968 C 250.456 236.551,250.773 235.983,250.773 235.706 C 250.773 235.429,250.947 235.096,251.159 234.967 C 251.936 234.494,255.471 228.112,255.478 227.170 C 255.480 226.896,255.608 226.594,255.762 226.499 C 255.916 226.404,256.333 225.369,256.689 224.200 C 257.044 223.031,257.514 221.658,257.733 221.148 C 257.952 220.637,258.131 219.933,258.131 219.583 C 258.131 219.233,258.275 218.677,258.451 218.349 C 258.626 218.020,259.076 216.738,259.451 215.498 C 260.208 212.993,260.169 212.864,258.403 211.982 C 256.707 211.136,256.366 210.023,256.365 205.342 C 256.365 199.593,256.598 199.138,259.746 198.746 C 262.237 198.436,262.372 198.087,261.950 193.019 C 261.771 190.869,261.484 188.712,261.312 188.227 C 261.140 187.741,260.901 186.748,260.780 186.019 C 260.474 184.164,259.097 179.552,258.570 178.615 C 258.329 178.186,258.131 177.416,258.131 176.904 C 258.131 176.393,257.810 175.272,257.417 174.413 C 257.024 173.555,256.559 172.316,256.382 171.660 C 256.206 171.005,255.865 170.093,255.626 169.634 C 255.387 169.176,255.190 168.684,255.189 168.542 C 255.188 168.400,254.805 167.473,254.337 166.482 C 252.931 163.503,252.539 162.551,252.539 162.119 C 252.539 161.892,252.425 161.581,252.285 161.428 C 252.146 161.274,251.815 160.453,251.550 159.603 C 251.284 158.753,250.847 157.362,250.579 156.512 C 250.311 155.662,248.931 152.572,247.513 149.645 C 246.095 146.719,244.318 143.010,243.564 141.404 C 240.981 135.902,239.758 133.480,239.266 132.892 C 238.632 132.133,236.645 128.257,236.645 127.778 C 236.645 127.577,236.290 126.791,235.857 126.032 C 234.372 123.428,231.918 118.764,231.182 117.145 C 230.777 116.255,230.198 115.063,229.895 114.496 C 227.837 110.642,227.383 109.838,226.824 109.051 C 226.478 108.565,225.297 106.270,224.199 103.951 C 223.100 101.632,221.875 99.218,221.476 98.586 C 221.077 97.954,220.751 97.327,220.751 97.193 C 220.751 97.060,220.413 96.494,220.000 95.937 C 219.587 95.379,217.948 92.274,216.358 89.036 C 210.787 77.693,209.568 75.314,208.843 74.363 C 208.441 73.835,207.830 72.749,207.486 71.948 C 207.142 71.148,205.699 68.109,204.279 65.195 C 202.859 62.281,201.254 58.904,200.712 57.689 C 198.393 52.501,197.794 52.156,195.946 54.952 M200.621 132.195 C 201.349 132.378,202.143 132.809,202.386 133.151 C 203.658 134.946,205.732 138.222,205.736 138.442 C 205.738 138.580,206.137 139.195,206.623 139.809 C 207.108 140.422,207.506 141.009,207.506 141.114 C 207.506 141.342,207.995 141.947,208.921 142.864 C 209.864 143.797,211.355 146.231,212.957 149.453 C 213.703 150.953,214.768 152.675,215.323 153.279 C 215.878 153.884,216.333 154.526,216.334 154.706 C 216.335 154.887,216.593 155.362,216.908 155.762 C 217.223 156.162,217.908 157.273,218.430 158.230 C 218.953 159.187,219.888 160.660,220.507 161.503 C 221.127 162.346,221.634 163.165,221.634 163.322 C 221.634 163.479,221.805 163.783,222.015 163.997 C 222.716 164.711,224.199 167.025,224.432 167.770 C 224.559 168.175,224.952 168.970,225.305 169.536 C 225.659 170.103,226.268 171.229,226.660 172.038 C 227.052 172.848,227.538 173.616,227.741 173.745 C 227.943 173.875,228.109 174.162,228.109 174.383 C 228.109 174.604,228.208 174.830,228.330 174.883 C 228.721 175.057,229.725 176.695,230.737 178.808 C 231.279 179.941,231.903 181.220,232.123 181.650 C 232.344 182.079,232.524 182.708,232.524 183.048 C 232.524 183.387,232.655 183.664,232.814 183.664 C 233.119 183.664,233.889 185.258,234.307 186.755 C 234.443 187.241,234.827 188.565,235.160 189.698 C 236.286 193.526,236.544 197.176,236.109 203.091 C 235.799 207.299,234.093 213.509,232.541 216.080 C 232.212 216.625,231.802 217.396,231.629 217.793 C 231.363 218.406,229.010 221.467,227.520 223.137 C 226.353 224.446,225.694 225.310,225.327 226.014 C 224.699 227.220,220.664 230.731,219.887 230.749 C 219.654 230.754,219.191 231.010,218.856 231.318 C 218.522 231.626,217.493 232.283,216.569 232.779 C 215.646 233.274,214.652 233.811,214.362 233.971 C 213.365 234.519,211.771 235.112,209.566 235.754 C 208.352 236.108,206.895 236.544,206.328 236.724 C 202.158 238.050,191.497 237.986,188.893 236.619 C 188.612 236.471,187.909 236.350,187.331 236.350 C 186.130 236.350,182.049 234.739,179.900 233.417 C 179.102 232.926,178.361 232.524,178.255 232.524 C 176.701 232.524,168.359 225.454,168.359 224.137 C 168.359 224.060,167.621 223.211,166.718 222.249 C 164.534 219.923,162.773 216.958,160.845 212.362 C 158.730 207.317,158.144 201.686,158.956 194.174 C 159.446 189.637,159.804 188.020,160.859 185.578 C 161.069 185.092,161.485 184.099,161.783 183.371 C 162.081 182.643,162.888 181.057,163.576 179.846 C 164.264 178.635,164.827 177.497,164.827 177.315 C 164.827 177.134,165.110 176.734,165.456 176.425 C 165.802 176.117,166.270 175.467,166.496 174.982 C 166.722 174.496,167.165 173.701,167.482 173.216 C 167.799 172.730,168.132 172.134,168.222 171.891 C 168.447 171.283,170.033 167.892,170.803 166.372 C 171.152 165.684,171.539 165.121,171.664 165.121 C 171.789 165.121,171.891 164.975,171.891 164.796 C 171.891 164.617,172.268 163.988,172.729 163.398 C 173.189 162.808,173.912 161.727,174.335 160.996 C 174.758 160.265,175.375 159.376,175.705 159.021 C 176.036 158.667,176.306 158.269,176.306 158.138 C 176.306 158.007,176.665 157.372,177.104 156.728 C 177.542 156.083,178.215 154.960,178.600 154.231 C 178.984 153.503,179.607 152.575,179.983 152.171 C 180.360 151.766,181.172 150.442,181.787 149.227 C 182.403 148.013,182.984 146.954,183.079 146.873 C 183.174 146.792,183.596 146.130,184.018 145.401 C 184.441 144.673,185.130 143.755,185.550 143.363 C 185.970 142.971,186.313 142.526,186.313 142.375 C 186.313 142.225,186.734 141.486,187.247 140.734 C 187.761 139.982,188.968 138.175,189.930 136.718 C 190.892 135.261,191.903 133.748,192.177 133.354 C 193.069 132.071,197.638 131.444,200.621 132.195 M353.054 140.649 L 372.185 140.839 372.267 145.361 C 372.322 148.446,372.241 150.014,372.010 150.292 C 371.659 150.715,268.227 150.941,267.132 150.520 C 266.167 150.150,267.649 141.086,268.795 140.344 C 269.161 140.107,315.256 140.274,353.054 140.649 M128.158 140.870 C 128.768 141.104,128.854 149.096,128.256 149.909 C 127.912 150.376,124.563 150.404,76.674 150.333 L 25.460 150.258 25.374 147.810 C 25.284 145.253,26.003 142.361,27.013 141.207 C 27.468 140.688,126.821 140.357,128.158 140.870 M195.958 146.962 C 195.414 147.803,194.604 149.261,194.156 150.202 C 193.708 151.142,193.118 152.147,192.845 152.435 C 192.190 153.124,191.787 153.776,190.908 155.569 C 190.507 156.386,189.840 157.394,189.426 157.808 C 189.011 158.222,188.397 159.143,188.059 159.855 C 187.207 161.654,186.920 162.126,185.578 163.939 C 184.358 165.588,183.340 167.347,182.002 170.125 C 180.495 173.252,180.019 174.114,178.830 175.865 C 178.170 176.836,177.465 177.737,177.263 177.866 C 177.060 177.995,176.895 178.282,176.895 178.504 C 176.895 178.725,176.793 178.950,176.669 179.004 C 176.271 179.177,174.246 181.800,174.246 182.143 C 174.246 182.325,173.875 183.172,173.421 184.026 C 172.081 186.546,170.759 189.876,170.408 191.611 C 169.801 194.615,169.409 201.776,169.760 203.461 C 170.438 206.717,170.765 207.977,171.155 208.830 C 171.377 209.316,171.639 209.912,171.737 210.155 C 171.968 210.729,172.344 211.339,174.009 213.834 C 175.780 216.488,176.259 216.983,179.691 219.705 C 180.500 220.347,181.396 221.166,181.682 221.526 C 182.222 222.204,186.496 224.645,187.785 225.010 C 188.190 225.125,189.382 225.571,190.434 226.001 C 193.600 227.295,204.099 226.932,206.181 225.455 C 206.343 225.341,206.858 225.155,207.325 225.043 C 207.792 224.931,208.587 224.534,209.091 224.161 C 209.595 223.788,210.616 223.186,211.359 222.823 C 212.103 222.461,213.170 221.747,213.730 221.237 C 214.290 220.726,215.196 219.978,215.743 219.573 C 218.805 217.308,221.147 213.853,224.087 207.264 C 225.112 204.967,225.367 194.314,224.449 192.136 C 224.196 191.534,223.988 190.756,223.988 190.407 C 223.988 190.058,223.603 189.028,223.133 188.117 C 222.662 187.206,222.038 185.865,221.746 185.136 C 221.455 184.408,220.885 183.282,220.482 182.634 C 220.078 181.987,219.539 181.060,219.285 180.574 C 219.031 180.088,218.232 178.896,217.509 177.925 C 215.197 174.820,213.862 172.648,212.061 169.062 C 211.093 167.138,210.233 165.497,210.148 165.416 C 209.988 165.263,209.058 163.870,208.539 163.006 C 208.375 162.733,207.745 161.784,207.138 160.896 C 206.531 160.008,206.034 159.105,206.034 158.888 C 206.034 158.670,205.736 158.158,205.372 157.749 C 204.296 156.542,203.536 155.364,202.723 153.642 C 202.302 152.752,201.711 151.759,201.408 151.435 C 201.106 151.111,200.168 149.701,199.324 148.302 C 197.400 145.111,197.204 145.032,195.958 146.962 " stroke="none" fill="#040c1b" fill-rule="evenodd"></path><path id="path3" d="M193.982 132.289 C 193.206 132.497,192.471 132.931,192.177 133.354 C 191.903 133.748,190.892 135.261,189.930 136.718 C 188.968 138.175,187.761 139.982,187.247 140.734 C 186.734 141.486,186.313 142.225,186.313 142.375 C 186.313 142.526,185.970 142.971,185.550 143.363 C 185.130 143.755,184.441 144.673,184.018 145.401 C 183.596 146.130,183.174 146.792,183.079 146.873 C 182.984 146.954,182.403 148.013,181.787 149.227 C 181.172 150.442,180.360 151.766,179.983 152.171 C 179.607 152.575,178.984 153.503,178.600 154.231 C 178.215 154.960,177.542 156.083,177.104 156.728 C 176.665 157.372,176.306 158.007,176.306 158.138 C 176.306 158.269,176.036 158.667,175.705 159.021 C 175.375 159.376,174.758 160.265,174.335 160.996 C 173.912 161.727,173.189 162.808,172.729 163.398 C 172.268 163.988,171.891 164.617,171.891 164.796 C 171.891 164.975,171.789 165.121,171.664 165.121 C 171.539 165.121,171.152 165.684,170.803 166.372 C 170.033 167.892,168.447 171.283,168.222 171.891 C 168.132 172.134,167.799 172.730,167.482 173.216 C 167.165 173.701,166.722 174.496,166.496 174.982 C 166.270 175.467,165.802 176.117,165.456 176.425 C 165.110 176.734,164.827 177.134,164.827 177.315 C 164.827 177.497,164.264 178.635,163.576 179.846 C 162.888 181.057,162.081 182.643,161.783 183.371 C 161.485 184.099,161.069 185.092,160.859 185.578 C 157.852 192.540,157.845 205.208,160.845 212.362 C 162.773 216.958,164.534 219.923,166.718 222.249 C 167.621 223.211,168.359 224.060,168.359 224.137 C 168.359 225.454,176.701 232.524,178.255 232.524 C 178.361 232.524,179.102 232.926,179.900 233.417 C 182.049 234.739,186.130 236.350,187.331 236.350 C 187.909 236.350,188.612 236.471,188.893 236.619 C 191.497 237.986,202.158 238.050,206.328 236.724 C 206.895 236.544,208.352 236.108,209.566 235.754 C 211.771 235.112,213.365 234.519,214.362 233.971 C 214.652 233.811,215.646 233.274,216.569 232.779 C 217.493 232.283,218.522 231.626,218.856 231.318 C 219.191 231.010,219.654 230.754,219.887 230.749 C 220.664 230.731,224.699 227.220,225.327 226.014 C 225.694 225.310,226.353 224.446,227.520 223.137 C 229.010 221.467,231.363 218.406,231.629 217.793 C 231.802 217.396,232.212 216.625,232.541 216.080 C 234.093 213.509,235.799 207.299,236.109 203.091 C 236.544 197.176,236.286 193.526,235.160 189.698 C 234.827 188.565,234.443 187.241,234.307 186.755 C 233.889 185.258,233.119 183.664,232.814 183.664 C 232.655 183.664,232.524 183.387,232.524 183.048 C 232.524 182.708,232.344 182.079,232.123 181.650 C 231.903 181.220,231.279 179.941,230.737 178.808 C 229.725 176.695,228.721 175.057,228.330 174.883 C 228.208 174.830,228.109 174.604,228.109 174.383 C 228.109 174.162,227.943 173.875,227.741 173.745 C 227.538 173.616,227.052 172.848,226.660 172.038 C 226.268 171.229,225.659 170.103,225.305 169.536 C 224.952 168.970,224.559 168.175,224.432 167.770 C 224.199 167.025,222.716 164.711,222.015 163.997 C 221.805 163.783,221.634 163.479,221.634 163.322 C 221.634 163.165,221.127 162.346,220.507 161.503 C 219.888 160.660,218.953 159.187,218.430 158.230 C 217.908 157.273,217.223 156.162,216.908 155.762 C 216.593 155.362,216.335 154.887,216.334 154.706 C 216.333 154.526,215.878 153.884,215.323 153.279 C 214.768 152.675,213.703 150.953,212.957 149.453 C 211.355 146.231,209.864 143.797,208.921 142.864 C 207.995 141.947,207.506 141.342,207.506 141.114 C 207.506 141.009,207.108 140.422,206.623 139.809 C 206.137 139.195,205.738 138.580,205.736 138.442 C 205.732 138.222,203.658 134.946,202.386 133.151 C 201.534 131.949,196.992 131.483,193.982 132.289 M201.773 133.635 C 202.174 134.011,202.502 134.460,202.502 134.633 C 202.502 134.806,202.947 135.610,203.491 136.421 C 204.035 137.232,205.226 139.046,206.138 140.452 C 207.049 141.858,207.930 143.092,208.094 143.194 C 208.653 143.539,211.556 148.190,212.456 150.182 C 212.950 151.273,213.871 152.796,214.503 153.566 C 215.597 154.899,216.792 156.812,217.792 158.833 C 218.043 159.340,218.879 160.665,219.650 161.776 C 222.514 165.907,223.249 167.102,224.870 170.268 C 225.783 172.051,227.129 174.371,227.860 175.423 C 228.592 176.475,229.624 178.263,230.154 179.397 C 230.683 180.530,231.557 182.384,232.096 183.517 C 233.452 186.371,234.634 190.372,235.140 193.819 C 235.306 194.952,235.523 196.424,235.621 197.090 C 235.856 198.683,235.261 205.158,234.691 207.211 C 234.444 208.102,234.124 209.483,233.981 210.281 C 233.837 211.079,232.965 213.262,232.041 215.132 C 230.517 218.219,229.286 219.976,226.181 223.493 C 225.635 224.112,224.928 225.039,224.610 225.554 C 223.838 226.803,221.120 229.249,219.485 230.166 C 213.387 233.588,210.683 234.878,209.610 234.878 C 209.392 234.879,208.796 235.061,208.286 235.285 C 207.776 235.508,206.630 235.831,205.740 236.003 C 204.849 236.175,203.392 236.468,202.502 236.655 C 200.487 237.079,191.587 236.934,190.994 236.468 C 190.767 236.289,189.654 235.994,188.521 235.811 C 182.367 234.817,172.599 228.932,169.357 224.266 C 168.632 223.223,167.438 221.758,166.704 221.011 C 165.433 219.718,163.926 217.222,162.291 213.702 C 157.980 204.426,158.537 190.384,163.561 181.649 C 163.966 180.945,164.683 179.621,165.155 178.706 C 165.627 177.791,166.557 176.181,167.222 175.129 C 168.295 173.429,170.714 168.654,170.714 168.235 C 170.714 167.945,173.000 164.333,174.075 162.925 C 174.654 162.166,175.129 161.406,175.129 161.238 C 175.129 161.069,175.526 160.479,176.012 159.926 C 176.497 159.372,176.895 158.791,176.895 158.633 C 176.895 158.338,180.175 153.255,180.876 152.465 C 181.091 152.222,181.690 151.163,182.208 150.110 C 183.046 148.404,184.731 145.728,186.284 143.635 C 186.584 143.230,187.991 141.111,189.410 138.926 C 190.830 136.740,192.268 134.528,192.607 134.009 C 193.333 132.899,193.943 132.775,198.168 132.879 C 200.720 132.942,201.127 133.027,201.773 133.635 M195.920 145.595 C 195.372 146.350,194.554 147.707,194.101 148.612 C 193.649 149.517,192.576 151.332,191.717 152.645 C 190.859 153.958,190.026 155.375,189.867 155.794 C 189.708 156.212,189.126 157.059,188.575 157.674 C 188.023 158.290,187.296 159.423,186.959 160.193 C 186.621 160.963,185.765 162.354,185.056 163.284 C 183.643 165.137,181.752 168.482,180.689 171.008 C 179.949 172.769,176.975 177.319,175.139 179.501 C 173.935 180.931,170.620 187.617,170.092 189.679 C 169.352 192.567,168.674 197.664,168.663 200.422 C 168.654 202.479,168.880 203.697,170.055 207.916 C 171.848 214.353,180.676 223.373,187.491 225.731 C 188.543 226.095,189.550 226.514,189.728 226.661 C 192.355 228.842,205.682 227.465,209.972 224.570 C 210.686 224.088,211.397 223.694,211.551 223.694 C 211.886 223.694,215.645 220.884,215.792 220.524 C 215.848 220.387,216.523 219.846,217.292 219.321 C 218.060 218.797,218.888 217.985,219.130 217.517 C 219.372 217.049,219.805 216.492,220.092 216.280 C 220.706 215.826,221.634 214.436,221.634 213.971 C 221.634 213.792,222.045 213.048,222.547 212.317 C 223.050 211.587,223.704 210.305,224.000 209.468 C 224.296 208.632,224.755 207.519,225.019 206.995 C 226.205 204.641,226.117 195.388,224.865 190.781 C 224.305 188.723,223.902 187.744,221.933 183.664 C 220.741 181.194,218.607 177.838,217.255 176.306 C 216.754 175.740,216.343 175.121,216.340 174.931 C 216.338 174.741,216.022 174.211,215.639 173.753 C 215.255 173.296,214.582 172.193,214.143 171.302 C 213.002 168.991,212.996 168.980,211.922 167.035 C 211.386 166.063,210.175 164.108,209.231 162.690 C 208.287 161.272,207.229 159.551,206.879 158.864 C 206.529 158.178,205.898 157.167,205.476 156.619 C 205.054 156.070,204.180 154.673,203.532 153.514 C 202.884 152.354,201.825 150.601,201.177 149.616 C 200.530 148.632,199.503 147.016,198.895 146.025 C 197.569 143.863,197.214 143.811,195.920 145.595 M199.324 148.302 C 200.168 149.701,201.106 151.111,201.408 151.435 C 201.711 151.759,202.302 152.752,202.723 153.642 C 203.536 155.364,204.296 156.542,205.372 157.749 C 205.736 158.158,206.034 158.670,206.034 158.888 C 206.034 159.105,206.531 160.008,207.138 160.896 C 207.745 161.784,208.375 162.733,208.539 163.006 C 209.058 163.870,209.988 165.263,210.148 165.416 C 210.233 165.497,211.093 167.138,212.061 169.062 C 213.862 172.648,215.197 174.820,217.509 177.925 C 218.232 178.896,219.031 180.088,219.285 180.574 C 219.539 181.060,220.078 181.987,220.482 182.634 C 220.885 183.282,221.455 184.408,221.746 185.136 C 222.038 185.865,222.662 187.206,223.133 188.117 C 223.603 189.028,223.988 190.058,223.988 190.407 C 223.988 190.756,224.196 191.534,224.449 192.136 C 225.367 194.314,225.112 204.967,224.087 207.264 C 221.147 213.853,218.805 217.308,215.743 219.573 C 215.196 219.978,214.290 220.726,213.730 221.237 C 213.170 221.747,212.103 222.461,211.359 222.823 C 210.616 223.186,209.595 223.788,209.091 224.161 C 208.587 224.534,207.792 224.931,207.325 225.043 C 206.858 225.155,206.343 225.341,206.181 225.455 C 204.099 226.932,193.600 227.295,190.434 226.001 C 189.382 225.571,188.190 225.125,187.785 225.010 C 186.496 224.645,182.222 222.204,181.682 221.526 C 181.396 221.166,180.500 220.347,179.691 219.705 C 176.259 216.983,175.780 216.488,174.009 213.834 C 172.344 211.339,171.968 210.729,171.737 210.155 C 171.639 209.912,171.377 209.316,171.155 208.830 C 170.765 207.977,170.438 206.717,169.760 203.461 C 169.409 201.776,169.801 194.615,170.408 191.611 C 170.759 189.876,172.081 186.546,173.421 184.026 C 173.875 183.172,174.246 182.325,174.246 182.143 C 174.246 181.800,176.271 179.177,176.669 179.004 C 176.793 178.950,176.895 178.725,176.895 178.504 C 176.895 178.282,177.060 177.995,177.263 177.866 C 177.465 177.737,178.170 176.836,178.830 175.865 C 180.019 174.114,180.495 173.252,182.002 170.125 C 183.340 167.347,184.358 165.588,185.578 163.939 C 186.920 162.126,187.207 161.654,188.059 159.855 C 188.397 159.143,189.011 158.222,189.426 157.808 C 189.840 157.394,190.507 156.386,190.908 155.569 C 191.787 153.776,192.190 153.124,192.845 152.435 C 193.118 152.147,193.708 151.142,194.156 150.202 C 196.693 144.871,197.154 144.702,199.324 148.302 M260.486 153.796 C 260.486 154.064,260.746 154.504,261.064 154.773 C 261.382 155.041,262.099 156.535,262.656 158.092 C 263.214 159.649,263.803 161.172,263.966 161.477 C 264.130 161.782,264.590 163.024,264.988 164.238 C 265.387 165.453,266.060 167.359,266.484 168.476 C 266.908 169.592,267.255 170.807,267.255 171.175 C 267.255 171.898,268.018 175.201,268.407 176.159 C 268.538 176.483,268.870 177.265,269.145 177.898 C 269.420 178.531,269.760 179.591,269.900 180.253 C 270.040 180.915,270.430 182.715,270.766 184.253 C 271.950 189.669,272.503 192.663,272.696 194.702 C 273.038 198.329,274.000 200.147,275.576 200.147 C 275.812 200.147,276.330 200.402,276.726 200.714 C 277.160 201.055,277.598 201.187,277.826 201.046 C 278.300 200.753,276.630 199.409,275.415 199.106 C 274.304 198.829,274.043 198.221,273.540 194.746 C 273.302 193.103,272.988 190.932,272.842 189.922 C 272.696 188.911,272.439 187.827,272.271 187.513 C 272.102 187.198,271.965 186.613,271.965 186.212 C 271.965 185.108,270.536 179.262,269.940 177.925 C 269.248 176.373,268.593 174.078,267.967 171.008 C 267.687 169.632,267.132 167.778,266.735 166.887 C 266.338 165.997,265.823 164.540,265.591 163.650 C 265.359 162.759,264.911 161.492,264.594 160.834 C 264.277 160.176,264.018 159.534,264.018 159.407 C 264.018 159.280,263.835 158.759,263.612 158.249 C 263.389 157.739,262.981 156.694,262.706 155.927 C 262.173 154.440,260.486 152.821,260.486 153.796 M251.078 158.006 C 251.352 159.362,251.950 161.060,252.284 161.428 C 252.424 161.581,252.539 161.892,252.539 162.119 C 252.539 162.540,252.869 163.348,254.306 166.446 C 254.756 167.417,255.222 168.543,255.340 168.948 C 255.458 169.352,255.657 169.816,255.784 169.978 C 255.910 170.140,256.168 170.853,256.358 171.562 C 256.548 172.272,257.024 173.555,257.417 174.413 C 257.810 175.272,258.131 176.393,258.131 176.904 C 258.131 177.416,258.329 178.186,258.570 178.615 C 259.097 179.552,260.474 184.164,260.780 186.019 C 260.901 186.748,261.140 187.741,261.312 188.227 C 261.484 188.712,261.771 190.869,261.950 193.019 C 262.372 198.087,262.237 198.436,259.746 198.746 C 256.598 199.138,256.365 199.593,256.365 205.342 C 256.366 210.023,256.707 211.136,258.403 211.982 C 260.169 212.864,260.208 212.993,259.451 215.498 C 259.076 216.738,258.626 218.020,258.451 218.349 C 258.275 218.677,258.131 219.233,258.131 219.583 C 258.131 219.933,257.952 220.637,257.733 221.148 C 257.514 221.658,257.044 223.031,256.689 224.200 C 256.333 225.369,255.916 226.404,255.762 226.499 C 255.608 226.594,255.480 226.896,255.478 227.170 C 255.471 228.112,251.936 234.494,251.159 234.967 C 250.947 235.096,250.773 235.429,250.773 235.706 C 250.773 235.983,250.456 236.551,250.069 236.968 C 249.682 237.385,249.155 238.133,248.898 238.630 C 248.642 239.126,248.233 239.731,247.990 239.974 C 247.226 240.737,244.592 244.090,244.592 244.298 C 244.592 244.847,238.029 251.067,237.450 251.067 C 237.077 251.067,232.710 254.402,231.577 255.553 C 231.138 256.000,230.601 256.365,230.385 256.365 C 230.169 256.365,229.859 256.499,229.695 256.663 C 229.531 256.827,228.942 257.206,228.385 257.506 C 227.828 257.806,226.645 258.444,225.754 258.923 C 224.864 259.403,223.371 260.215,222.436 260.729 C 221.502 261.243,220.508 261.664,220.229 261.665 C 219.949 261.666,219.389 261.839,218.985 262.050 C 218.580 262.260,216.924 262.738,215.305 263.110 C 213.687 263.483,212.031 263.925,211.626 264.092 C 211.221 264.259,209.963 264.501,208.830 264.629 C 207.697 264.757,205.511 265.023,203.974 265.219 C 200.560 265.656,192.138 265.627,190.387 265.173 C 189.685 264.991,187.719 264.724,186.019 264.579 C 184.319 264.433,182.664 264.187,182.340 264.031 C 182.016 263.875,180.758 263.472,179.544 263.136 C 175.068 261.898,174.788 261.782,170.272 259.307 C 169.301 258.775,167.691 257.912,166.695 257.389 C 165.699 256.866,164.386 256.057,163.777 255.592 C 163.169 255.127,162.044 254.349,161.278 253.863 C 158.184 251.902,154.210 248.478,150.808 244.841 C 150.301 244.299,149.736 243.723,149.551 243.561 C 149.127 243.190,146.409 239.488,146.003 238.729 C 145.836 238.417,145.515 237.978,145.290 237.753 C 145.065 237.528,144.612 236.822,144.284 236.185 C 143.956 235.547,143.087 234.117,142.354 233.006 C 140.653 230.428,138.609 226.217,137.713 223.446 C 137.329 222.257,136.915 221.223,136.793 221.147 C 136.671 221.072,136.571 220.740,136.571 220.410 C 136.571 220.080,136.384 219.392,136.156 218.882 C 135.928 218.372,135.679 217.623,135.602 217.219 C 135.013 214.123,133.852 211.026,133.495 211.602 C 132.623 213.013,138.598 228.761,141.958 233.906 C 142.718 235.071,143.341 236.096,143.341 236.183 C 143.341 236.328,144.624 238.223,147.137 241.787 C 149.520 245.166,156.125 251.374,160.349 254.204 C 161.112 254.715,162.448 255.642,163.318 256.264 C 164.187 256.886,165.978 257.928,167.297 258.580 C 168.615 259.232,170.156 260.042,170.719 260.380 C 173.221 261.883,175.323 262.897,176.432 263.135 C 178.906 263.665,180.306 264.050,181.163 264.437 C 181.648 264.656,183.807 265.054,185.961 265.322 C 188.114 265.590,190.190 265.929,190.574 266.075 C 191.774 266.532,199.836 266.750,201.472 266.371 C 202.281 266.183,204.205 265.915,205.747 265.775 C 207.288 265.635,209.805 265.230,211.339 264.875 C 218.044 263.324,217.444 263.490,221.045 262.189 C 222.098 261.809,223.555 261.089,224.283 260.590 C 225.011 260.091,225.938 259.583,226.343 259.461 C 226.748 259.339,227.277 259.071,227.520 258.865 C 227.763 258.660,228.756 258.092,229.728 257.605 C 230.699 257.117,232.288 256.037,233.260 255.204 C 236.207 252.677,236.397 252.530,237.346 252.039 C 239.571 250.890,244.266 246.260,246.505 243.006 C 247.152 242.065,248.046 240.955,248.492 240.540 C 248.937 240.125,249.301 239.618,249.301 239.415 C 249.301 239.211,249.665 238.615,250.110 238.089 C 250.556 237.564,251.185 236.708,251.508 236.188 C 251.832 235.667,252.463 234.697,252.910 234.031 C 254.168 232.156,255.339 229.888,256.362 227.344 C 257.378 224.816,257.525 224.386,259.157 219.132 C 259.761 217.189,260.439 215.100,260.664 214.490 C 261.388 212.531,260.982 211.626,259.379 211.626 C 257.735 211.626,257.391 210.487,257.445 205.212 C 257.502 199.626,257.531 199.558,259.914 199.558 C 263.781 199.558,263.968 194.752,260.593 182.046 C 260.335 181.074,259.875 179.661,259.571 178.906 C 259.267 178.150,258.829 176.759,258.597 175.815 C 258.099 173.782,256.847 170.297,256.221 169.197 C 255.976 168.767,255.776 168.223,255.776 167.987 C 255.776 167.752,255.365 166.712,254.863 165.678 C 253.080 162.007,251.799 158.540,252.066 158.108 C 252.161 157.954,251.929 157.624,251.549 157.375 C 250.860 156.924,250.860 156.924,251.078 158.006 M131.303 160.032 C 130.915 160.808,130.487 161.641,130.352 161.884 C 129.625 163.189,128.918 164.851,128.918 165.252 C 128.918 165.504,128.802 165.710,128.659 165.710 C 128.263 165.710,127.485 168.153,126.733 171.759 C 126.066 174.961,125.903 175.584,124.969 178.514 C 124.711 179.323,124.501 180.296,124.502 180.676 C 124.503 181.055,124.315 181.718,124.085 182.147 C 122.675 184.784,120.590 200.849,121.742 200.204 C 122.039 200.038,122.195 199.239,122.274 197.483 C 122.459 193.393,123.720 185.713,124.665 182.931 C 124.914 182.196,125.377 180.604,125.694 179.392 C 126.010 178.180,126.534 176.175,126.858 174.935 C 127.182 173.694,127.448 172.337,127.450 171.918 C 127.455 170.944,128.451 167.760,129.345 165.857 C 130.803 162.756,131.614 161.127,131.985 160.559 C 132.197 160.235,132.289 159.667,132.189 159.296 C 132.027 158.690,131.937 158.766,131.303 160.032 M140.323 163.780 C 140.040 163.987,139.809 164.396,139.809 164.689 C 139.809 164.982,139.359 166.490,138.810 168.041 C 138.260 169.592,137.459 172.053,137.029 173.510 C 136.599 174.967,135.999 176.689,135.695 177.336 C 135.392 177.984,134.785 179.639,134.347 181.015 C 133.910 182.391,133.099 184.898,132.545 186.586 C 131.552 189.618,131.037 199.558,131.874 199.558 C 132.699 199.558,132.995 199.187,132.728 198.484 C 132.284 197.317,132.395 190.209,132.883 188.521 C 133.117 187.712,133.462 186.453,133.650 185.725 C 133.838 184.996,134.084 184.202,134.198 183.959 C 134.312 183.716,134.710 182.524,135.084 181.310 C 135.457 180.096,136.143 178.297,136.608 177.313 C 137.073 176.329,137.454 175.294,137.454 175.013 C 137.454 174.731,137.611 174.212,137.803 173.859 C 137.994 173.505,138.245 172.686,138.360 172.038 C 138.568 170.863,138.978 169.587,139.686 167.918 C 140.200 166.702,141.075 163.641,140.945 163.510 C 140.886 163.452,140.606 163.573,140.323 163.780 M276.982 210.414 C 276.587 210.676,275.727 211.428,275.071 212.085 C 274.145 213.013,273.504 213.362,272.208 213.647 C 270.173 214.093,270.080 214.199,269.463 216.777 C 269.191 217.910,268.773 219.540,268.533 220.400 C 268.294 221.259,267.987 222.584,267.853 223.343 C 267.719 224.103,267.409 225.386,267.165 226.196 C 266.921 227.005,266.519 228.377,266.271 229.244 C 266.023 230.111,265.481 231.310,265.066 231.909 C 264.651 232.507,264.312 233.099,264.312 233.223 C 264.312 233.347,263.915 234.026,263.429 234.731 C 262.943 235.437,262.546 236.086,262.546 236.172 C 262.546 236.259,261.784 237.473,260.854 238.870 C 259.923 240.267,258.481 242.540,257.649 243.922 C 254.634 248.928,241.454 262.546,239.624 262.546 C 239.478 262.546,238.686 263.010,237.862 263.576 C 237.038 264.143,236.283 264.606,236.184 264.606 C 236.084 264.606,234.702 265.401,233.113 266.372 C 231.523 267.344,230.098 268.138,229.946 268.138 C 229.793 268.138,229.143 268.519,228.501 268.985 C 227.858 269.450,227.010 269.931,226.617 270.054 C 226.223 270.177,224.903 270.768,223.683 271.368 C 220.612 272.878,216.743 273.907,211.921 274.495 C 211.030 274.604,210.037 274.833,209.713 275.006 C 208.201 275.810,193.447 276.224,189.257 275.579 C 183.928 274.760,175.001 272.800,173.510 272.123 C 173.024 271.902,171.933 271.497,171.084 271.222 C 170.236 270.946,168.334 270.008,166.858 269.135 C 165.382 268.263,164.082 267.550,163.970 267.550 C 163.857 267.550,163.110 267.124,162.309 266.603 C 161.509 266.082,160.238 265.321,159.485 264.911 C 152.987 261.370,143.277 252.584,138.263 245.707 C 137.818 245.096,137.454 244.486,137.454 244.351 C 137.454 244.216,137.110 243.784,136.689 243.392 C 136.268 243.000,135.599 242.082,135.201 241.354 C 134.803 240.625,134.018 239.235,133.457 238.263 C 130.619 233.349,128.120 227.706,127.005 223.694 C 126.623 222.318,126.029 220.331,125.685 219.279 C 124.271 214.955,123.915 213.626,123.915 212.682 C 123.915 211.835,123.243 211.023,122.859 211.406 C 122.692 211.573,124.357 218.254,124.968 219.868 C 125.432 221.094,126.080 223.184,126.746 225.607 C 127.259 227.472,128.032 229.319,129.681 232.621 C 130.233 233.727,130.684 234.761,130.684 234.920 C 130.684 235.316,135.391 243.194,135.847 243.561 C 136.048 243.723,136.577 244.452,137.023 245.180 C 138.816 248.112,142.137 251.841,146.938 256.314 C 147.055 256.423,147.651 257.045,148.263 257.695 C 149.351 258.853,150.723 260.009,152.769 261.493 C 155.127 263.202,159.037 265.728,159.717 265.981 C 160.018 266.093,160.898 266.617,161.671 267.144 C 162.444 267.672,163.371 268.193,163.731 268.303 C 164.091 268.413,164.584 268.671,164.827 268.877 C 166.507 270.301,172.684 272.929,176.600 273.886 C 177.491 274.104,178.749 274.419,179.397 274.588 C 180.044 274.756,181.063 274.897,181.660 274.901 C 182.258 274.905,182.822 275.029,182.913 275.177 C 183.005 275.326,184.072 275.540,185.285 275.654 C 186.498 275.767,187.491 275.953,187.491 276.066 C 187.491 276.387,193.834 276.968,197.384 276.972 C 200.532 276.975,205.209 276.473,210.155 275.600 C 211.531 275.358,213.451 275.049,214.422 274.915 C 217.885 274.437,220.525 273.715,222.901 272.597 C 224.228 271.973,225.644 271.357,226.049 271.229 C 226.453 271.101,227.314 270.654,227.962 270.237 C 228.609 269.819,229.649 269.243,230.271 268.957 C 230.894 268.670,231.954 268.065,232.626 267.611 C 233.298 267.157,234.047 266.688,234.290 266.567 C 234.533 266.447,235.526 265.896,236.497 265.342 C 237.469 264.788,238.793 264.047,239.441 263.695 C 241.271 262.702,242.663 261.527,246.906 257.397 C 249.069 255.292,251.254 253.164,251.762 252.670 C 254.445 250.058,257.343 246.280,258.700 243.625 C 259.256 242.538,259.813 241.648,259.937 241.648 C 260.116 241.648,262.996 237.107,264.753 234.053 C 264.915 233.772,265.412 232.925,265.857 232.171 C 266.302 231.417,266.667 230.552,266.667 230.249 C 266.667 229.946,266.783 229.572,266.925 229.419 C 267.245 229.073,268.185 225.804,268.868 222.664 C 269.150 221.369,269.484 220.044,269.611 219.720 C 269.737 219.397,269.982 218.291,270.154 217.264 C 270.511 215.141,270.866 214.570,271.829 214.570 C 273.029 214.570,275.054 213.495,275.869 212.426 C 276.358 211.785,277.132 211.228,277.880 210.979 C 279.058 210.586,279.074 210.564,278.398 210.256 C 277.852 210.007,277.544 210.042,276.982 210.414 " stroke="none" fill="#0a655c" fill-rule="evenodd"></path></g></svg>